<svg viewBox="0 0 1331 1024" xmlns="http://www.w3.org/2000/svg"><path d="M1039.5 370.7a361 361 0 0 0-28-133.6 219.9 219.9 0 0 0-43-61.9 169 169 0 0 0-55.3-43.5c-44.5-27.2-97.5-45.3-219.5-82.7C571.8 11.8 499.2 0 499.2 0v955.5L707 1024s.3-530.1.3-798.7v-10.1c0-24.8 19.5-44.8 41.9-44.8h1.3c22.1 0 40.3 20 40.3 44.8v355.5c28.6 14.1 75.9 24.8 108.7 24.3a121.8 121.8 0 0 0 62.4-15.2 109.1 109.1 0 0 0 47.8-47.5 224.3 224.3 0 0 0 30-161.6zM225.4 783.5c71.2-26.1 232.2-78.7 232.2-78.7v-125.8S258.7 645 168.2 677.8c-22.3 8.3-45 15.7-66.8 25.3a205.3 205.3 0 0 0-97 66.4 47.4 47.4 0 0 0-1.3 36.3 76.8 76.8 0 0 0 26.3 33.6 154.5 154.5 0 0 0 68.6 32.5 666.6 666.6 0 0 0 229.9 35.5c37.7-.5 93.6-5 130-11.7v-112s-28.6 6.7-107.4 33.3a223.5 223.5 0 0 1-92.6 17.3c-16.9-.8-34.3-1.9-50.2-8.3-5.7-2.7-11.9-5.9-14.3-12.3-2-5.3.8-10.6 4.4-14.4 7.3-7.7 17.7-12 27.6-16z" fill="#0070d1"/><path d="M1331.2 751.7a60.3 60.3 0 0 0-84.8-76l-38.2-13.3a508.5 508.5 0 0 0-284.2-26.4c-56.9 6.7-175 41-175 41v130.2s175.5-57.6 250.9-84.8c25.2-8.8 52.3-12.3 78.8-12.3 16.9.5 34.3 1.9 50.4 8.3 5.7 2.4 11.7 5.9 14.3 12 2.3 7-2.3 13.4-7.5 17.3-12.2 10.2-27.8 14.2-42.1 19.8-106.6 38.6-345 119.2-345 119.2v125.3s304.7-105.6 444.1-156.8c23.1-8.8 46.5-16.3 68.6-27.7a121.4 121.4 0 0 0 56.7-40.8 60.3 60.3 0 0 0 13-35z" fill="#0070d1"/></svg>
