<svg viewBox="0 0 1024 1024" xmlns="http://www.w3.org/2000/svg"><path d="M511.1 0C242.3 0 21.8 207.4.9 471l274.5 113.4a144.5 144.5 0 0 1 89.6-24.9l122-176.7v-2.7a193.2 193.2 0 0 1 193-193c106.4 0 193 86.7 193 193.2s-86.6 193-193 193h-4.5l-174 124.2c0 2.2.2 4.5.2 6.8a144.7 144.7 0 0 1-144.6 144.9 145.6 145.6 0 0 1-142.1-116.4L18.6 651.5C79.4 866.4 276.7 1024 511.1 1024c282.8 0 512-229.2 512-512S793.8 0 511.1 0zM321.7 777l-62.8-26c11.2 23.1 30.5 42.6 56 53.3a108.8 108.8 0 0 0 142.4-141.8 108.7 108.7 0 0 0-138.9-60.3l65 26.9a80.1 80.1 0 0 1-61.7 148zm487-397a128.8 128.8 0 0 0-128.6-128.6 128.6 128.6 0 1 0 128.7 128.6zm-225-.2a96.6 96.6 0 1 1 193.3 0 96.7 96.7 0 0 1-96.7 96.6 96.6 96.6 0 0 1-96.6-96.6z" fill="#fff"/></svg>
