<svg viewBox="0 0 1024 1024" xmlns="http://www.w3.org/2000/svg"><path d="M175 897.4A509.8 509.8 0 0 0 512 1024c129.1 0 247-47.7 337.2-126.6C929.2 815.8 665 525.8 512 410.3 359.2 525.8 94.8 815.8 175 897.4zm476.2-614.7c106.7 126.3 319.3 440 259.2 551a509.4 509.4 0 0 0 113.6-321.6c0-142.5-58.2-271.5-152.3-364.2l-3.5-1.8a35.5 35.5 0 0 0-12-1.9c-25.2 0-84.7 18.5-205 138.5zM155.9 146.2a510.2 510.2 0 0 0-156 366c0 121.8 42.6 233.5 113.5 321.4C53.8 722.4 266.2 409 373 282.8 252.7 162.8 193.1 144.3 168 144.3a31.3 31.3 0 0 0-12 2zM512 151.5S386.3 78 288.2 74.5c-38.5-1.4-62 12.6-64.9 14.5 91.5-61.4 188.8-89 288-89h.7c99.6 0 196.5 27.6 288.7 89-2.9-2-26.2-15.9-64.9-14.5-98.1 3.5-223.8 76.8-223.8 76.8v.3z" fill="#107C10"/></svg>
